<svg xmlns="http://www.w3.org/2000/svg" xmlns:xlink="http://www.w3.org/1999/xlink" width="500" zoomAndPan="magnify" viewBox="0 0 375 374.999991" height="500" preserveAspectRatio="xMidYMid meet" version="1.0"><defs><g/><clipPath id="bb5a5e2079"><path d="M 8.210938 8.210938 L 366.789062 8.210938 L 366.789062 366.789062 L 8.210938 366.789062 Z M 8.210938 8.210938 " clip-rule="nonzero"/></clipPath><clipPath id="f5db16b52c"><path d="M 187.5 8.210938 C 88.480469 8.210938 8.210938 88.480469 8.210938 187.5 C 8.210938 286.519531 88.480469 366.789062 187.5 366.789062 C 286.519531 366.789062 366.789062 286.519531 366.789062 187.5 C 366.789062 88.480469 286.519531 8.210938 187.5 8.210938 Z M 187.5 8.210938 " clip-rule="nonzero"/></clipPath><clipPath id="25925e0161"><path d="M 22.195312 22.195312 L 352.804688 22.195312 L 352.804688 352.804688 L 22.195312 352.804688 Z M 22.195312 22.195312 " clip-rule="nonzero"/></clipPath><clipPath id="336f49ddf2"><path d="M 187.5 22.195312 C 96.203125 22.195312 22.195312 96.203125 22.195312 187.5 C 22.195312 278.796875 96.203125 352.804688 187.5 352.804688 C 278.796875 352.804688 352.804688 278.796875 352.804688 187.5 C 352.804688 96.203125 278.796875 22.195312 187.5 22.195312 Z M 187.5 22.195312 " clip-rule="nonzero"/></clipPath><clipPath id="5a0f976746"><path d="M 22.195312 22.195312 L 352.78125 22.195312 L 352.78125 352.78125 L 22.195312 352.78125 Z M 22.195312 22.195312 " clip-rule="nonzero"/></clipPath><clipPath id="50132ce2f0"><path d="M 187.5 22.195312 C 96.203125 22.195312 22.195312 96.203125 22.195312 187.5 C 22.195312 278.792969 96.203125 352.804688 187.5 352.804688 C 278.792969 352.804688 352.804688 278.792969 352.804688 187.5 C 352.804688 96.203125 278.792969 22.195312 187.5 22.195312 Z M 187.5 22.195312 " clip-rule="nonzero"/></clipPath><clipPath id="8af3ff815c"><path d="M 137.53125 34.851562 L 214 34.851562 L 214 111 L 137.53125 111 Z M 137.53125 34.851562 " clip-rule="nonzero"/></clipPath><clipPath id="b92f20fa63"><path d="M 199 72 L 237.105469 72 L 237.105469 111.855469 L 199 111.855469 Z M 199 72 " clip-rule="nonzero"/></clipPath><clipPath id="0d335c443d"><path d="M 137.53125 30.867188 L 211 30.867188 L 211 103.890625 L 137.53125 103.890625 Z M 137.53125 30.867188 " clip-rule="nonzero"/></clipPath><clipPath id="97a86e4289"><path d="M 196 67 L 233.121094 67 L 233.121094 103.890625 L 196 103.890625 Z M 196 67 " clip-rule="nonzero"/></clipPath></defs><g clip-path="url(#bb5a5e2079)"><g clip-path="url(#f5db16b52c)"><path fill="#f0dfc8" d="M 8.210938 8.210938 L 366.789062 8.210938 L 366.789062 366.789062 L 8.210938 366.789062 Z M 8.210938 8.210938 " fill-opacity="1" fill-rule="nonzero"/></g></g><g clip-path="url(#25925e0161)"><g clip-path="url(#336f49ddf2)"><path fill="#e16539" d="M 22.195312 22.195312 L 352.804688 22.195312 L 352.804688 352.804688 L 22.195312 352.804688 Z M 22.195312 22.195312 " fill-opacity="1" fill-rule="nonzero"/></g></g><g clip-path="url(#5a0f976746)"><g clip-path="url(#50132ce2f0)"><path stroke-linecap="butt" transform="matrix(1.327662, 0, 0, 1.327662, 22.194863, 22.194864)" fill="none" stroke-linejoin="miter" d="M 124.50843 0.000337644 C 55.743292 0.000337644 0.000338412 55.743291 0.000338412 124.50843 C 0.000338412 193.270626 55.743292 249.016522 124.50843 249.016522 C 193.270627 249.016522 249.016522 193.270626 249.016522 124.50843 C 249.016522 55.743291 193.270627 0.000337644 124.50843 0.000337644 Z M 124.50843 0.000337644 " stroke="#303030" stroke-width="6.778832" stroke-opacity="1" stroke-miterlimit="4"/></g></g><g clip-path="url(#8af3ff815c)"><path fill="#f0dfc8" d="M 176.394531 55.222656 C 176.507812 56.285156 176.710938 57.328125 177.003906 58.351562 C 177.296875 59.378906 177.675781 60.371094 178.136719 61.335938 C 178.597656 62.296875 179.136719 63.210938 179.753906 64.082031 C 180.367188 64.953125 181.054688 65.765625 181.808594 66.519531 C 182.5625 67.273438 183.375 67.960938 184.246094 68.574219 C 185.117188 69.191406 186.03125 69.730469 186.992188 70.191406 C 187.957031 70.652344 188.949219 71.03125 189.976562 71.324219 C 191 71.617188 192.042969 71.820312 193.105469 71.933594 C 199.855469 72.609375 206.621094 72.917969 213.40625 72.859375 C 206.621094 72.804688 199.855469 73.113281 193.105469 73.785156 C 192.042969 73.902344 191 74.105469 189.976562 74.398438 C 188.949219 74.691406 187.957031 75.070312 186.996094 75.53125 C 186.03125 75.992188 185.117188 76.53125 184.246094 77.144531 C 183.375 77.761719 182.5625 78.449219 181.808594 79.203125 C 181.054688 79.957031 180.371094 80.769531 179.753906 81.640625 C 179.136719 82.507812 178.597656 83.425781 178.136719 84.386719 C 177.675781 85.347656 177.296875 86.34375 177.003906 87.367188 C 176.710938 88.394531 176.507812 89.4375 176.394531 90.496094 C 175.71875 97.25 175.410156 104.015625 175.46875 110.796875 C 175.523438 104.015625 175.214844 97.25 174.542969 90.496094 C 174.425781 89.4375 174.222656 88.394531 173.929688 87.367188 C 173.636719 86.34375 173.261719 85.347656 172.800781 84.386719 C 172.335938 83.425781 171.800781 82.507812 171.183594 81.640625 C 170.566406 80.769531 169.878906 79.957031 169.125 79.203125 C 168.371094 78.449219 167.558594 77.761719 166.6875 77.144531 C 165.820312 76.527344 164.902344 75.992188 163.941406 75.527344 C 162.980469 75.066406 161.984375 74.691406 160.960938 74.398438 C 159.933594 74.105469 158.890625 73.902344 157.832031 73.785156 C 151.082031 73.113281 144.3125 72.804688 137.53125 72.859375 C 144.3125 72.917969 151.082031 72.609375 157.832031 71.933594 C 158.890625 71.820312 159.933594 71.613281 160.960938 71.324219 C 161.984375 71.03125 162.980469 70.652344 163.941406 70.191406 C 164.902344 69.730469 165.820312 69.191406 166.6875 68.574219 C 167.558594 67.957031 168.371094 67.273438 169.125 66.519531 C 169.878906 65.765625 170.566406 64.953125 171.183594 64.082031 C 171.796875 63.210938 172.335938 62.296875 172.796875 61.332031 C 173.261719 60.371094 173.636719 59.378906 173.929688 58.351562 C 174.222656 57.328125 174.425781 56.285156 174.542969 55.222656 C 175.214844 48.472656 175.523438 41.707031 175.46875 34.921875 C 175.410156 41.707031 175.71875 48.472656 176.394531 55.222656 Z M 176.394531 55.222656 " fill-opacity="1" fill-rule="nonzero"/></g><g clip-path="url(#b92f20fa63)"><path fill="#f0dfc8" d="M 218.75 83.132812 C 218.808594 83.671875 218.910156 84.199219 219.058594 84.71875 C 219.207031 85.234375 219.398438 85.738281 219.628906 86.226562 C 219.863281 86.710938 220.136719 87.175781 220.449219 87.617188 C 220.761719 88.058594 221.105469 88.46875 221.488281 88.851562 C 221.871094 89.230469 222.28125 89.578125 222.722656 89.890625 C 223.164062 90.203125 223.625 90.476562 224.113281 90.707031 C 224.597656 90.941406 225.101562 91.132812 225.621094 91.28125 C 226.140625 91.429688 226.667969 91.53125 227.203125 91.589844 C 230.621094 91.929688 234.046875 92.085938 237.476562 92.058594 C 234.046875 92.03125 230.621094 92.1875 227.203125 92.527344 C 226.667969 92.585938 226.140625 92.6875 225.621094 92.835938 C 225.101562 92.984375 224.597656 93.175781 224.113281 93.410156 C 223.625 93.640625 223.164062 93.914062 222.722656 94.226562 C 222.28125 94.539062 221.871094 94.886719 221.488281 95.265625 C 221.105469 95.648438 220.761719 96.058594 220.449219 96.5 C 220.136719 96.941406 219.863281 97.40625 219.628906 97.890625 C 219.398438 98.378906 219.207031 98.882812 219.058594 99.398438 C 218.910156 99.917969 218.808594 100.445312 218.75 100.984375 C 218.40625 104.398438 218.25 107.824219 218.28125 111.257812 C 218.308594 107.824219 218.152344 104.398438 217.8125 100.984375 C 217.753906 100.445312 217.648438 99.917969 217.5 99.398438 C 217.351562 98.882812 217.164062 98.378906 216.929688 97.890625 C 216.695312 97.40625 216.421875 96.941406 216.109375 96.5 C 215.800781 96.058594 215.453125 95.648438 215.070312 95.265625 C 214.6875 94.886719 214.277344 94.539062 213.835938 94.226562 C 213.398438 93.914062 212.933594 93.640625 212.445312 93.410156 C 211.960938 93.175781 211.457031 92.984375 210.9375 92.835938 C 210.417969 92.6875 209.890625 92.585938 209.355469 92.527344 C 205.9375 92.1875 202.515625 92.03125 199.082031 92.058594 C 202.515625 92.085938 205.9375 91.929688 209.355469 91.589844 C 209.890625 91.53125 210.417969 91.429688 210.9375 91.28125 C 211.457031 91.132812 211.960938 90.941406 212.445312 90.707031 C 212.933594 90.476562 213.398438 90.203125 213.835938 89.890625 C 214.277344 89.578125 214.6875 89.230469 215.070312 88.851562 C 215.453125 88.46875 215.800781 88.058594 216.109375 87.617188 C 216.421875 87.175781 216.695312 86.710938 216.929688 86.226562 C 217.164062 85.738281 217.351562 85.234375 217.5 84.71875 C 217.648438 84.199219 217.753906 83.671875 217.8125 83.132812 C 218.152344 79.71875 218.308594 76.292969 218.28125 72.859375 C 218.253906 76.292969 218.410156 79.71875 218.75 83.132812 Z M 218.75 83.132812 " fill-opacity="1" fill-rule="nonzero"/></g><path fill="#f0dfc8" d="M 204.316406 45.25 C 204.390625 45.910156 204.570312 46.539062 204.855469 47.136719 C 205.144531 47.734375 205.519531 48.269531 205.992188 48.738281 C 206.460938 49.207031 206.992188 49.585938 207.59375 49.875 C 208.191406 50.160156 208.820312 50.339844 209.480469 50.410156 C 211.566406 50.621094 213.65625 50.714844 215.753906 50.699219 C 213.65625 50.679688 211.566406 50.777344 209.480469 50.984375 C 208.820312 51.054688 208.191406 51.234375 207.59375 51.523438 C 206.992188 51.808594 206.460938 52.1875 205.992188 52.65625 C 205.519531 53.125 205.144531 53.660156 204.855469 54.257812 C 204.570312 54.859375 204.390625 55.488281 204.316406 56.148438 C 204.109375 58.234375 204.015625 60.324219 204.03125 62.417969 C 204.046875 60.324219 203.953125 58.234375 203.746094 56.148438 C 203.671875 55.488281 203.492188 54.859375 203.207031 54.257812 C 202.917969 53.660156 202.542969 53.125 202.070312 52.65625 C 201.601562 52.1875 201.066406 51.808594 200.46875 51.523438 C 199.871094 51.234375 199.242188 51.054688 198.582031 50.984375 C 196.496094 50.777344 194.40625 50.679688 192.308594 50.699219 C 194.40625 50.714844 196.496094 50.621094 198.582031 50.410156 C 199.242188 50.339844 199.871094 50.160156 200.46875 49.871094 C 201.066406 49.585938 201.601562 49.207031 202.070312 48.738281 C 202.539062 48.269531 202.917969 47.734375 203.203125 47.136719 C 203.492188 46.539062 203.671875 45.910156 203.742188 45.25 C 203.953125 43.164062 204.046875 41.070312 204.03125 38.972656 C 204.015625 41.070312 204.109375 43.164062 204.316406 45.25 Z M 204.316406 45.25 " fill-opacity="1" fill-rule="nonzero"/><g clip-path="url(#0d335c443d)"><path fill="#303030" d="M 174.660156 50.328125 C 174.769531 51.339844 174.964844 52.335938 175.242188 53.316406 C 175.523438 54.296875 175.882812 55.246094 176.324219 56.164062 C 176.765625 57.082031 177.277344 57.957031 177.867188 58.789062 C 178.457031 59.621094 179.113281 60.398438 179.832031 61.117188 C 180.554688 61.839844 181.328125 62.492188 182.160156 63.082031 C 182.992188 63.671875 183.867188 64.1875 184.785156 64.628906 C 185.707031 65.066406 186.65625 65.429688 187.632812 65.707031 C 188.613281 65.988281 189.609375 66.183594 190.625 66.292969 C 197.074219 66.933594 203.539062 67.230469 210.019531 67.175781 C 203.539062 67.125 197.074219 67.417969 190.625 68.0625 C 189.609375 68.171875 188.613281 68.367188 187.632812 68.644531 C 186.65625 68.925781 185.707031 69.285156 184.785156 69.726562 C 183.867188 70.167969 182.992188 70.683594 182.160156 71.269531 C 181.328125 71.859375 180.554688 72.515625 179.832031 73.234375 C 179.113281 73.957031 178.457031 74.730469 177.867188 75.5625 C 177.277344 76.394531 176.765625 77.269531 176.324219 78.1875 C 175.882812 79.109375 175.523438 80.058594 175.242188 81.039062 C 174.964844 82.015625 174.769531 83.011719 174.660156 84.027344 C 174.015625 90.476562 173.722656 96.941406 173.773438 103.421875 C 173.828125 96.941406 173.53125 90.476562 172.890625 84.027344 C 172.78125 83.011719 172.585938 82.015625 172.304688 81.039062 C 172.023438 80.058594 171.664062 79.109375 171.226562 78.1875 C 170.785156 77.269531 170.269531 76.394531 169.679688 75.5625 C 169.089844 74.730469 168.4375 73.957031 167.714844 73.234375 C 166.996094 72.515625 166.21875 71.859375 165.386719 71.269531 C 164.554688 70.679688 163.679688 70.167969 162.761719 69.726562 C 161.84375 69.285156 160.894531 68.925781 159.914062 68.644531 C 158.933594 68.367188 157.9375 68.171875 156.925781 68.058594 C 150.476562 67.417969 144.011719 67.125 137.53125 67.175781 C 144.011719 67.230469 150.476562 66.933594 156.925781 66.292969 C 157.9375 66.179688 158.933594 65.988281 159.914062 65.707031 C 160.894531 65.425781 161.84375 65.066406 162.761719 64.625 C 163.679688 64.1875 164.554688 63.671875 165.386719 63.082031 C 166.21875 62.492188 166.996094 61.839844 167.714844 61.117188 C 168.4375 60.398438 169.089844 59.621094 169.679688 58.789062 C 170.269531 57.957031 170.785156 57.082031 171.222656 56.164062 C 171.664062 55.246094 172.023438 54.296875 172.304688 53.316406 C 172.585938 52.335938 172.78125 51.339844 172.890625 50.328125 C 173.53125 43.878906 173.828125 37.414062 173.773438 30.933594 C 173.722656 37.414062 174.015625 43.878906 174.660156 50.328125 Z M 174.660156 50.328125 " fill-opacity="1" fill-rule="nonzero"/></g><g clip-path="url(#97a86e4289)"><path fill="#303030" d="M 215.121094 76.992188 C 215.179688 77.503906 215.277344 78.007812 215.417969 78.503906 C 215.5625 79 215.742188 79.480469 215.964844 79.945312 C 216.1875 80.410156 216.449219 80.851562 216.746094 81.273438 C 217.046875 81.695312 217.375 82.085938 217.742188 82.453125 C 218.105469 82.816406 218.5 83.148438 218.917969 83.445312 C 219.339844 83.742188 219.785156 84.003906 220.25 84.226562 C 220.714844 84.449219 221.195312 84.632812 221.691406 84.773438 C 222.1875 84.914062 222.691406 85.015625 223.203125 85.070312 C 226.464844 85.394531 229.738281 85.542969 233.015625 85.519531 C 229.738281 85.492188 226.464844 85.640625 223.203125 85.964844 C 222.691406 86.019531 222.1875 86.121094 221.691406 86.261719 C 221.195312 86.402344 220.714844 86.585938 220.25 86.808594 C 219.785156 87.03125 219.339844 87.292969 218.917969 87.589844 C 218.5 87.886719 218.105469 88.21875 217.742188 88.582031 C 217.375 88.949219 217.046875 89.339844 216.746094 89.761719 C 216.449219 90.183594 216.1875 90.625 215.964844 91.089844 C 215.742188 91.554688 215.5625 92.035156 215.417969 92.53125 C 215.277344 93.027344 215.179688 93.53125 215.121094 94.042969 C 214.796875 97.308594 214.648438 100.578125 214.675781 103.859375 C 214.703125 100.578125 214.554688 97.308594 214.226562 94.042969 C 214.171875 93.53125 214.074219 93.027344 213.933594 92.53125 C 213.789062 92.035156 213.609375 91.554688 213.386719 91.089844 C 213.164062 90.625 212.902344 90.183594 212.605469 89.761719 C 212.304688 89.339844 211.972656 88.949219 211.609375 88.582031 C 211.246094 88.21875 210.851562 87.886719 210.429688 87.589844 C 210.011719 87.292969 209.566406 87.03125 209.101562 86.808594 C 208.636719 86.585938 208.15625 86.402344 207.660156 86.261719 C 207.164062 86.121094 206.660156 86.019531 206.148438 85.964844 C 202.886719 85.640625 199.613281 85.492188 196.335938 85.519531 C 199.613281 85.542969 202.886719 85.394531 206.148438 85.070312 C 206.660156 85.015625 207.164062 84.914062 207.660156 84.773438 C 208.15625 84.632812 208.636719 84.449219 209.101562 84.226562 C 209.566406 84.003906 210.011719 83.742188 210.429688 83.445312 C 210.851562 83.148438 211.246094 82.816406 211.609375 82.453125 C 211.972656 82.085938 212.304688 81.695312 212.605469 81.273438 C 212.902344 80.851562 213.164062 80.410156 213.386719 79.945312 C 213.609375 79.480469 213.789062 79 213.933594 78.503906 C 214.074219 78.007812 214.171875 77.503906 214.226562 76.992188 C 214.554688 73.726562 214.703125 70.457031 214.679688 67.175781 C 214.648438 70.457031 214.796875 73.726562 215.121094 76.992188 Z M 215.121094 76.992188 " fill-opacity="1" fill-rule="nonzero"/></g><path fill="#303030" d="M 201.335938 40.796875 C 201.40625 41.425781 201.578125 42.027344 201.851562 42.601562 C 202.125 43.171875 202.484375 43.683594 202.933594 44.132812 C 203.382812 44.578125 203.894531 44.941406 204.464844 45.214844 C 205.039062 45.488281 205.636719 45.660156 206.269531 45.730469 C 208.261719 45.929688 210.257812 46.019531 212.261719 46.003906 C 210.257812 45.988281 208.261719 46.078125 206.269531 46.277344 C 205.636719 46.34375 205.039062 46.515625 204.464844 46.789062 C 203.894531 47.066406 203.382812 47.425781 202.933594 47.875 C 202.484375 48.324219 202.125 48.832031 201.851562 49.40625 C 201.578125 49.976562 201.40625 50.578125 201.335938 51.210938 C 201.136719 53.203125 201.046875 55.199219 201.0625 57.203125 C 201.078125 55.199219 200.988281 53.203125 200.789062 51.210938 C 200.722656 50.578125 200.550781 49.976562 200.273438 49.40625 C 200 48.832031 199.640625 48.324219 199.191406 47.875 C 198.742188 47.425781 198.230469 47.066406 197.660156 46.789062 C 197.089844 46.515625 196.488281 46.34375 195.855469 46.277344 C 193.863281 46.078125 191.867188 45.988281 189.863281 46.003906 C 191.867188 46.019531 193.863281 45.929688 195.855469 45.730469 C 196.488281 45.660156 197.089844 45.488281 197.660156 45.214844 C 198.230469 44.941406 198.742188 44.578125 199.191406 44.128906 C 199.636719 43.683594 200 43.171875 200.273438 42.601562 C 200.546875 42.027344 200.71875 41.425781 200.789062 40.796875 C 200.988281 38.804688 201.078125 36.804688 201.0625 34.800781 C 201.046875 36.804688 201.136719 38.804688 201.335938 40.796875 Z M 201.335938 40.796875 " fill-opacity="1" fill-rule="nonzero"/><path stroke-linecap="butt" transform="matrix(1.312574, -0.199592, 0.199592, 1.312574, -25.958821, 144.855504)" fill="none" stroke-linejoin="miter" d="M 80.572565 23.418001 C 89.521356 23.418725 94.322712 15.485623 92.654055 11.428527 C 90.624719 11.426473 89.161685 9.579093 89.161347 7.076206 C 89.160445 1.171639 95.696955 -4.081082 106.607296 -4.08266 C 118.058975 -4.082274 121.010016 0.720388 129.780301 0.720753 C 139.743982 0.72105 144.92868 -5.838358 144.928783 -12.962943 C 144.927815 -15.442117 144.094071 -16.750379 141.320294 -16.749568 C 138.998823 -16.748428 135.776519 -15.735525 129.125044 -15.73511 C 122.77108 -15.734096 117.586657 -16.456975 107.712008 -16.455638 C 81.293783 -16.455202 69.030459 -2.526227 69.029623 10.591957 C 69.031312 17.332906 72.998584 23.418011 80.572565 23.418001 Z M 77.799331 58.878211 C 89.340484 58.877323 99.213848 51.21253 106.225488 34.419615 C 109.650113 26.283118 112.423295 17.98804 115.557119 8.182413 C 116.570725 5.137319 115.377306 3.199992 111.318193 3.198794 C 108.547325 3.200047 106.517615 4.394297 105.3008 7.640622 C 103.745452 11.606258 101.987397 16.317812 100.407092 20.467143 C 95.990939 31.738397 88.034517 36.26928 82.329702 36.26782 C 77.055947 36.269411 73.540269 33.496842 73.538746 29.416483 C 73.539436 28.785671 72.909141 28.311872 72.165142 28.311827 C 64.769668 28.312197 59.879167 35.794268 59.879177 43.368249 C 59.880461 51.031704 64.952037 58.876903 77.799331 58.878211 Z M 130.237114 55.001457 C 140.945236 54.998889 150.728653 47.064481 158.863121 32.007694 C 159.877627 30.248378 156.183001 27.478358 154.695311 29.707357 C 150.547294 36.064306 143.063081 39.309927 136.795241 39.312133 C 131.521928 39.310815 127.192374 37.643585 127.19436 34.420853 C 127.194921 33.203745 128.117397 32.930351 128.77076 33.291593 C 130.891917 34.509922 133.371564 34.779844 135.963483 34.78114 C 145.001749 34.78059 150.816832 27.206983 150.818052 20.466475 C 150.817953 14.380493 147.051378 8.834807 138.465417 8.835686 C 111.955251 8.834045 104.29244 54.9995 130.237114 55.001457 Z M 133.572454 27.861377 C 130.596458 27.861198 129.221264 26.101576 129.223317 24.07224 C 129.222537 21.572262 131.431285 18.887464 135.038093 18.888333 C 137.900903 18.889157 139.276539 20.64587 139.277394 22.675648 C 139.275626 24.996677 137.155992 27.858707 133.572454 27.861377 Z M 168.833564 54.998798 C 179.630276 55.000774 189.503168 47.065092 197.640545 32.008746 C 198.655051 30.249431 194.957957 27.47606 193.493538 29.708597 C 184.814043 42.263 166.624368 41.520746 166.625601 29.143653 C 166.6256 24.524864 169.013117 20.194725 173.161705 20.194649 C 175.935039 20.196747 176.948392 21.752546 176.947943 23.419051 C 176.949511 26.755411 174.829096 27.117463 174.830281 28.694936 C 174.830349 29.888331 176.406645 31.264866 179.629819 31.263943 C 183.596991 31.263065 189.052071 28.131486 189.053665 20.194674 C 189.054398 14.201075 185.177186 8.834982 176.317426 8.835892 C 161.732048 8.835154 152.852779 24.073313 152.852933 36.989277 C 152.850889 46.592594 157.741807 54.999574 168.833564 54.998798 Z M 197.647306 54.999554 C 203.733289 54.999455 204.929922 49.928736 204.929088 45.217564 L 204.929012 41.068976 C 204.930321 32.840471 209.550734 25.177456 214.892718 25.177312 C 217.032331 25.178279 218.408845 26.283377 218.408066 28.402187 C 218.409746 32.187944 214.080487 38.386388 214.079739 45.397785 C 214.080685 50.558353 216.110382 55.000688 222.196365 55.000589 C 234.660024 55.000105 240.950304 37.079699 243.902916 32.008155 C 244.917422 30.248839 241.220329 27.475468 239.732197 29.707376 C 237.885087 32.479901 236.149935 34.418309 233.376158 34.419119 C 230.423874 34.41957 229.114472 32.931842 229.114824 29.798143 C 229.115265 25.176446 232.070006 22.224154 232.069533 17.334476 C 232.069973 12.712778 229.40978 8.835246 223.773194 8.835233 C 219.693276 8.833847 216.020287 10.775186 212.594183 14.087326 C 210.565073 16.138762 209.075958 15.754596 210.092075 11.968854 C 211.217526 7.640244 214.442302 2.657702 216.829137 -2.705221 C 219.51298 -8.612233 218.407806 -11.384308 214.622491 -11.385536 C 207.137543 -11.383892 202.899514 2.747622 193.568026 29.70802 C 191.718975 34.959277 190.435732 40.775713 190.433657 45.486442 C 190.434446 50.941612 192.284519 54.999511 197.647306 54.999554 Z M 197.647306 54.999554 " stroke="#f0dfc8" stroke-width="6.925335" stroke-opacity="1" stroke-miterlimit="4"/><path stroke-linecap="butt" transform="matrix(1.312574, -0.199592, 0.199592, 1.312574, -25.958821, 144.855504)" fill="none" stroke-linejoin="miter" d="M 66.587458 99.417967 C 75.536249 99.418691 80.337605 91.485589 78.668948 87.428493 C 76.642521 87.426882 75.176578 85.579059 75.17624 83.076172 C 75.175338 77.171605 81.711848 71.918884 92.622189 71.917306 C 104.073868 71.917693 107.027818 76.720797 115.795194 76.720719 C 125.758875 76.721016 130.943573 70.161608 130.943676 63.037024 C 130.942708 60.557849 130.108964 59.249587 127.338096 59.25084 C 125.013716 59.251538 121.791412 60.264442 115.142846 60.265298 C 108.785973 60.26587 103.60155 59.542991 93.726901 59.544328 C 67.308676 59.544764 55.045352 73.473739 55.047425 86.592365 C 55.046205 93.332872 59.013477 99.417977 66.587458 99.417967 Z M 63.814224 134.878177 C 75.355377 134.877289 85.228741 127.212497 92.240381 110.419582 C 95.665006 102.283084 98.438188 93.988006 101.572012 84.182379 C 102.585618 81.137285 101.392199 79.199958 97.333086 79.19876 C 94.562218 79.200013 92.532507 80.394264 91.315693 83.640588 C 89.760345 87.606224 88.00229 92.317778 86.424894 96.467551 C 82.005832 107.738363 74.04941 112.269247 68.344595 112.267786 C 63.07084 112.269377 59.555162 109.496809 59.553639 105.416449 C 59.554329 104.785637 58.924034 104.311838 58.180035 104.311794 C 50.785003 104.309254 45.89406 111.794235 45.89407 119.368215 C 45.895354 127.03167 50.96693 134.876869 63.814224 134.878177 Z M 108.678468 130.998524 C 115.23756 130.998942 120.782938 125.003279 124.480043 117.521276 L 124.840407 117.519529 C 123.737328 125.184686 126.418349 130.9998 132.775221 130.999229 C 143.030596 130.999241 148.104534 116.596049 152.63341 108.008452 C 153.558442 106.250411 149.861349 103.47704 148.486403 105.708303 C 146.638492 108.662244 144.317845 110.419363 141.184146 110.419012 C 137.12459 110.420722 136.112647 106.722401 139.244657 99.981803 C 141.274478 94.61816 143.685806 91.755845 143.68441 88.261781 C 143.686651 86.211642 142.851445 84.83471 140.440942 84.834216 C 136.110938 84.83349 135.457179 88.349947 132.415421 88.351672 C 130.002009 88.350735 130.384878 84.834751 122.992312 84.835563 C 107.124064 84.836168 99.16491 104.219968 99.166069 117.070612 C 99.165389 125.275405 102.410628 131.00073 108.678468 130.998524 Z M 117.920964 111.884272 C 115.058155 111.883448 113.300519 110.035911 113.30087 106.902212 C 113.298717 102.845564 116.341748 98.314525 121.144861 98.315768 C 124.097145 98.315318 125.944256 100.16158 125.945539 103.206247 C 125.945142 107.083945 122.721168 111.885072 117.920964 111.884272 Z M 154.196399 131.000796 C 166.662966 131.000755 172.950338 113.079907 175.90295 108.008362 C 176.917456 106.249047 173.220363 103.475676 171.735139 105.708026 C 169.795287 108.65989 167.495002 110.420106 164.27227 110.41812 C 158.727625 110.420183 159.470476 105.143564 161.026558 99.803117 C 163.14679 92.024787 166.750897 83.549531 171.824911 73.294927 C 174.685627 67.477307 173.400672 64.615398 169.615357 64.614169 C 162.130409 64.615814 157.89238 78.747328 148.560892 105.707725 C 146.711841 110.958983 145.428598 116.775418 145.429432 121.48659 C 145.427312 126.941318 147.637307 131.000379 154.196399 131.000796 Z M 175.906803 130.998728 C 181.995694 130.999071 183.189418 125.92791 183.188585 121.216738 L 183.189332 114.205341 C 183.188903 108.571664 188.260514 108.098883 188.913406 112.808023 C 190.672808 125.545097 193.152771 130.9993 199.530447 130.998916 C 212.559156 131.001026 219.211076 113.168348 222.162413 108.007329 C 223.176919 106.248013 220.133923 102.461072 217.99416 105.709901 C 215.693696 109.291415 211.073071 110.41905 205.731087 110.419194 C 200.636281 110.418236 197.412725 108.660272 197.411 105.618513 C 197.411134 103.386516 198.698164 101.537696 201.854301 101.449203 C 209.40457 101.448563 213.282619 98.31526 213.2806 92.026616 C 213.282916 88.351579 210.710592 84.835604 205.166389 84.834758 C 198.517823 84.835615 194.277798 89.997091 190.492921 98.584733 C 189.389338 101.086413 184.856673 101.087607 185.396727 98.044904 C 187.157614 89.185203 191.778072 80.77819 195.091542 73.294395 C 197.772477 67.386941 196.667303 64.614866 192.881546 64.616546 C 185.397039 64.615282 181.158569 78.749705 171.827523 105.707194 C 169.97803 110.96136 168.694787 116.777795 168.69562 121.488967 C 168.6935 126.943695 170.544016 130.998685 175.906803 130.998728 Z M 253.813925 105.707611 C 251.987619 108.480324 250.04817 110.509682 247.275668 110.599967 C 246.057299 104.873345 241.166808 97.481253 241.166426 95.722365 C 241.16602 92.026083 247.906054 91.756413 247.816572 88.802495 C 247.905595 85.848937 245.132972 82.534633 239.40982 82.536336 C 231.473008 82.534742 224.914858 96.286671 218.37748 105.1462 L 217.99416 105.709901 C 212.449705 114.928737 214.388349 130.910149 230.640232 130.911336 C 247.815063 130.910019 255.38933 113.372347 257.981735 108.007947 C 258.817735 106.248272 255.299148 103.475261 253.813925 105.707611 Z M 227.325494 111.884523 C 224.283736 111.886248 222.165817 110.216056 222.165322 108.007771 C 224.284596 105.324248 227.145725 101.539314 229.446272 98.133398 C 230.279677 96.938772 231.023676 96.938817 231.654114 98.135811 C 232.961664 100.614273 233.706804 102.935789 233.70439 105.143631 C 233.705628 108.932297 231.384608 111.885721 227.325494 111.884523 Z M 227.325494 111.884523 " stroke="#f0dfc8" stroke-width="6.925335" stroke-opacity="1" stroke-miterlimit="4"/><g fill="#303030" fill-opacity="1"><g transform="translate(69.679744, 204.173377)"><g><path d="M 14.785156 -44.652344 C 26.539062 -46.441406 31.257812 -57.820312 28.265625 -62.824219 C 25.597656 -62.417969 23.289062 -64.546875 22.792969 -67.816406 C 21.613281 -75.574219 29.167969 -83.789062 43.46875 -85.964844 C 58.496094 -88.25 63.332031 -82.539062 74.84375 -84.289062 C 87.933594 -86.277344 93.414062 -95.914062 91.992188 -105.246094 C 91.496094 -108.519531 90.148438 -110.050781 86.511719 -109.496094 C 83.480469 -109.035156 79.441406 -107.058594 70.71875 -105.730469 C 62.355469 -104.460938 55.421875 -104.398438 42.453125 -102.425781 C 7.792969 -97.15625 -5.542969 -76.40625 -2.925781 -59.195312 C -1.582031 -50.347656 4.847656 -43.140625 14.785156 -44.652344 Z M 18.226562 2.4375 C 33.375 0.132812 44.8125 -11.898438 50.667969 -35.355469 C 53.53125 -46.703125 55.507812 -58.160156 57.675781 -71.632812 C 58.398438 -75.835938 56.4375 -78.140625 51.105469 -77.332031 C 47.46875 -76.777344 45.042969 -74.796875 44.113281 -70.316406 C 42.84375 -64.792969 41.480469 -58.261719 40.25 -52.492188 C 36.683594 -36.824219 27.164062 -29.300781 19.648438 -28.160156 C 12.742188 -27.109375 7.582031 -30.042969 6.773438 -35.375 C 6.644531 -36.222656 5.703125 -36.699219 4.734375 -36.554688 C -4.960938 -35.078125 -9.894531 -24.285156 -8.382812 -14.347656 C -6.851562 -4.289062 1.378906 4.996094 18.226562 2.4375 Z M 18.226562 2.4375 "/></g></g></g><g fill="#303030" fill-opacity="1"><g transform="translate(133.181947, 194.517134)"><g><path d="M 22.785156 -3.464844 C 36.839844 -5.601562 48.101562 -17.976562 55.765625 -39.355469 C 56.746094 -41.859375 51.347656 -44.757812 49.851562 -41.554688 C 45.667969 -32.363281 36.496094 -26.628906 28.253906 -25.375 C 21.347656 -24.324219 15.320312 -25.640625 14.675781 -29.882812 C 14.433594 -31.457031 15.59375 -32.003906 16.515625 -31.648438 C 19.539062 -30.496094 22.867188 -30.632812 26.261719 -31.148438 C 38.136719 -32.953125 44.261719 -44.050781 42.917969 -52.898438 C 41.699219 -60.898438 35.625 -67.414062 24.355469 -65.699219 C -10.425781 -60.410156 -11.269531 1.714844 22.785156 -3.464844 Z M 21.730469 -39.757812 C 17.851562 -39.167969 15.683594 -41.195312 15.277344 -43.859375 C 14.78125 -47.132812 17.152344 -51.089844 21.878906 -51.808594 C 25.636719 -52.378906 27.804688 -50.351562 28.210938 -47.6875 C 28.671875 -44.65625 26.453125 -40.476562 21.730469 -39.757812 Z M 21.730469 -39.757812 "/></g></g></g><g fill="#303030" fill-opacity="1"><g transform="translate(185.292523, 186.593119)"><g><path d="M 21.328125 -3.242188 C 35.507812 -5.398438 46.890625 -17.792969 54.550781 -39.167969 C 55.535156 -41.675781 50.132812 -44.574219 48.636719 -41.371094 C 39.753906 -23.15625 15.730469 -20.496094 13.261719 -36.734375 C 12.339844 -42.792969 14.625 -48.96875 20.078125 -49.796875 C 23.714844 -50.351562 25.359375 -48.492188 25.691406 -46.3125 C 26.355469 -41.949219 23.640625 -41.039062 23.953125 -38.980469 C 24.195312 -37.40625 26.53125 -35.898438 30.773438 -36.546875 C 35.984375 -37.335938 42.507812 -42.546875 40.921875 -52.96875 C 39.726562 -60.84375 33.566406 -67.101562 21.933594 -65.332031 C 2.785156 -62.417969 -5.808594 -40.652344 -3.230469 -23.6875 C -1.3125 -11.082031 6.785156 -1.03125 21.328125 -3.242188 Z M 21.328125 -3.242188 "/></g></g></g><g fill="#303030" fill-opacity="1"><g transform="translate(236.191226, 178.853384)"><g><path d="M 8.242188 -1.253906 C 16.238281 -2.46875 16.800781 -9.375 15.863281 -15.554688 L 15.03125 -21.007812 C 13.390625 -31.792969 17.921875 -42.773438 24.949219 -43.84375 C 27.738281 -44.265625 29.777344 -43.089844 30.203125 -40.300781 C 30.957031 -35.332031 26.496094 -26.347656 27.894531 -17.136719 C 28.929688 -10.351562 32.480469 -4.9375 40.476562 -6.15625 C 56.839844 -8.644531 61.503906 -33.40625 64.367188 -40.660156 C 65.351562 -43.167969 59.949219 -46.066406 58.453125 -42.863281 C 56.582031 -38.859375 54.667969 -35.964844 51.03125 -35.410156 C 47.152344 -34.820312 45.164062 -36.5 44.535156 -40.621094 C 43.613281 -46.679688 46.902344 -51.148438 45.925781 -57.574219 C 45.003906 -63.632812 40.714844 -68.1875 33.324219 -67.0625 C 27.992188 -66.253906 23.53125 -62.96875 19.710938 -57.925781 C 17.449219 -54.855469 15.4375 -55.042969 16.015625 -60.214844 C 16.601562 -66.132812 19.847656 -73.320312 21.929688 -80.828125 C 24.265625 -89.121094 22.257812 -92.535156 17.289062 -91.78125 C 7.472656 -90.285156 4.71875 -70.898438 -2.140625 -33.648438 C -3.515625 -26.371094 -4.050781 -18.480469 -3.109375 -12.296875 C -2.023438 -5.148438 1.210938 -0.183594 8.242188 -1.253906 Z M 8.242188 -1.253906 "/></g></g></g><g fill="#303030" fill-opacity="1"><g transform="translate(66.493212, 306.72015)"><g><path d="M 14.785156 -44.652344 C 26.539062 -46.441406 31.257812 -57.820312 28.265625 -62.824219 C 25.597656 -62.417969 23.289062 -64.546875 22.792969 -67.816406 C 21.613281 -75.574219 29.167969 -83.789062 43.46875 -85.964844 C 58.496094 -88.25 63.332031 -82.539062 74.84375 -84.289062 C 87.933594 -86.277344 93.414062 -95.914062 91.992188 -105.246094 C 91.496094 -108.519531 90.148438 -110.050781 86.511719 -109.496094 C 83.480469 -109.035156 79.441406 -107.058594 70.71875 -105.730469 C 62.355469 -104.460938 55.421875 -104.398438 42.453125 -102.425781 C 7.792969 -97.15625 -5.542969 -76.40625 -2.925781 -59.195312 C -1.582031 -50.347656 4.847656 -43.140625 14.785156 -44.652344 Z M 18.226562 2.4375 C 33.375 0.132812 44.8125 -11.898438 50.667969 -35.355469 C 53.53125 -46.703125 55.507812 -58.160156 57.675781 -71.632812 C 58.398438 -75.835938 56.4375 -78.140625 51.105469 -77.332031 C 47.46875 -76.777344 45.042969 -74.796875 44.113281 -70.316406 C 42.84375 -64.792969 41.480469 -58.261719 40.25 -52.492188 C 36.683594 -36.824219 27.164062 -29.300781 19.648438 -28.160156 C 12.742188 -27.109375 7.582031 -30.042969 6.773438 -35.375 C 6.644531 -36.222656 5.703125 -36.699219 4.734375 -36.554688 C -4.960938 -35.078125 -9.894531 -24.285156 -8.382812 -14.347656 C -6.851562 -4.289062 1.378906 4.996094 18.226562 2.4375 Z M 18.226562 2.4375 "/></g></g></g><g fill="#303030" fill-opacity="1"><g transform="translate(129.995415, 297.063907)"><g><path d="M 12.847656 -1.953125 C 21.449219 -3.261719 27.523438 -12.246094 30.878906 -22.796875 L 31.363281 -22.871094 C 31.4375 -12.59375 36.113281 -5.492188 44.476562 -6.761719 C 57.929688 -8.808594 61.71875 -28.726562 65.945312 -40.902344 C 66.804688 -43.386719 61.40625 -46.285156 60.03125 -43.101562 C 58.195312 -38.855469 55.515625 -36.09375 51.394531 -35.464844 C 46.0625 -34.65625 43.992188 -39.300781 46.769531 -48.773438 C 48.367188 -56.207031 50.945312 -60.445312 50.246094 -65.046875 C 49.839844 -67.714844 48.472656 -69.367188 45.320312 -68.886719 C 39.625 -68.023438 39.476562 -63.289062 35.476562 -62.679688 C 32.328125 -62.199219 32.113281 -66.878906 22.417969 -65.40625 C 1.570312 -62.234375 -4.980469 -35.199219 -2.417969 -18.355469 C -0.777344 -7.570312 4.605469 -0.699219 12.847656 -1.953125 Z M 21.152344 -28.882812 C 17.394531 -28.3125 14.722656 -30.386719 14.097656 -34.503906 C 13.285156 -39.835938 16.382812 -46.382812 22.683594 -47.34375 C 26.5625 -47.933594 29.355469 -45.875 29.960938 -41.878906 C 30.734375 -36.789062 27.453125 -29.839844 21.152344 -28.882812 Z M 21.152344 -28.882812 "/></g></g></g><g fill="#303030" fill-opacity="1"><g transform="translate(192.285748, 287.591943)"><g><path d="M 10.300781 -1.566406 C 26.660156 -4.054688 31.328125 -28.816406 34.191406 -36.074219 C 35.175781 -38.578125 29.773438 -41.476562 28.277344 -38.273438 C 26.324219 -34.007812 23.644531 -31.246094 19.402344 -30.601562 C 12.128906 -29.496094 12.050781 -36.550781 13.039062 -43.890625 C 14.28125 -54.496094 17.3125 -66.363281 21.929688 -80.828125 C 24.527344 -89.035156 22.257812 -92.535156 17.289062 -91.78125 C 7.472656 -90.285156 4.71875 -70.898438 -2.140625 -33.648438 C -3.515625 -26.371094 -4.050781 -18.480469 -3.109375 -12.296875 C -2.023438 -5.148438 1.695312 -0.257812 10.300781 -1.566406 Z M 10.300781 -1.566406 "/></g></g></g><g fill="#303030" fill-opacity="1"><g transform="translate(222.824978, 282.9481)"><g><path d="M 8.242188 -1.253906 C 16.238281 -2.46875 16.800781 -9.375 15.863281 -15.554688 L 14.460938 -24.765625 C 13.335938 -32.15625 19.910156 -33.777344 21.699219 -27.726562 C 26.542969 -11.351562 30.902344 -4.699219 39.265625 -5.972656 C 56.351562 -8.570312 61.523438 -33.285156 64.367188 -40.660156 C 65.351562 -43.167969 60.597656 -47.527344 58.453125 -42.863281 C 56.144531 -37.675781 50.304688 -35.300781 43.277344 -34.230469 C 36.609375 -33.21875 32.019531 -34.875 31.410156 -38.875 C 30.96875 -41.78125 32.296875 -44.464844 36.398438 -45.210938 C 46.335938 -46.722656 50.800781 -51.617188 49.546875 -59.859375 C 48.808594 -64.707031 44.714844 -68.796875 37.445312 -67.691406 C 28.71875 -66.363281 24.175781 -58.730469 20.921875 -46.703125 C 19.964844 -43.210938 14.027344 -42.304688 14.144531 -46.417969 C 14.679688 -58.402344 19.0625 -70.351562 21.929688 -80.828125 C 24.265625 -89.121094 22.257812 -92.535156 17.289062 -91.78125 C 7.472656 -90.285156 4.71875 -70.898438 -2.140625 -33.648438 C -3.515625 -26.371094 -4.050781 -18.480469 -3.109375 -12.296875 C -2.023438 -5.148438 1.210938 -0.183594 8.242188 -1.253906 Z M 8.242188 -1.253906 "/></g></g></g><g fill="#303030" fill-opacity="1"><g transform="translate(283.539865, 273.715701)"><g><path d="M 44.757812 -40.78125 C 42.890625 -36.777344 40.75 -33.722656 37.132812 -33.046875 C 34.414062 -40.324219 26.515625 -49.042969 26.167969 -51.34375 C 25.429688 -56.191406 34.222656 -57.898438 33.511719 -61.761719 C 33.042969 -65.65625 28.742188 -69.464844 21.230469 -68.324219 C 10.804688 -66.738281 4.949219 -47.375 -1.886719 -34.429688 L -2.261719 -33.628906 C -7.691406 -20.40625 -1.957031 0.171875 19.371094 -3.070312 C 41.914062 -6.496094 48.347656 -31.035156 50.675781 -38.578125 C 51.414062 -41.046875 46.257812 -43.984375 44.757812 -40.78125 Z M 11.210938 -27.371094 C 7.214844 -26.761719 4.09375 -28.519531 3.652344 -31.429688 C 5.90625 -35.367188 8.90625 -40.90625 11.253906 -45.851562 C 12.105469 -47.59375 13.074219 -47.742188 14.164062 -46.292969 C 16.355469 -43.28125 17.789062 -40.398438 18.230469 -37.488281 C 18.984375 -32.519531 16.546875 -28.183594 11.210938 -27.371094 Z M 11.210938 -27.371094 "/></g></g></g></svg>